<svg width="1060" height="1060" viewBox="0 0 1060 1060" fill="none" xmlns="http://www.w3.org/2000/svg">
<g filter="url(#filter0_f_154_234)">
<path fill-rule="evenodd" clip-rule="evenodd" d="M589.474 30.0529C592.042 29.5204 609.56 33.07 628.454 37.9506C651.383 43.8073 676.606 61.5254 704.121 91.1047C742 131.836 748.787 135.474 786.666 135.474C809.32 135.474 841.329 141.686 857.747 149.317C874.164 156.86 896.727 175.85 908.008 191.468C919.289 206.997 928.553 232.731 928.644 248.615C928.736 264.499 921.123 292.452 911.768 310.732C902.321 329.012 874.439 361.401 849.859 382.61C825.187 403.907 782.355 432.303 704.121 470.283L800.424 465.935C887.463 461.942 901.496 463.539 946.346 482.618C973.586 494.242 1003.67 513.765 1013.12 525.922C1023.85 539.765 1030.27 562.305 1029.99 585.82C1029.81 609.513 1022.01 634.892 1009.08 654.149C997.707 671.009 973.952 693.637 956.343 704.463C926.076 723.009 924.425 726.47 927.727 764.805C930.387 795.509 925.984 814.765 909.384 843.782C897.369 864.813 879.3 887.264 869.211 893.564C859.123 899.865 836.377 907.851 818.767 911.223C794.279 915.926 777.036 912.554 746.035 896.936C723.656 885.666 689.263 858.424 669.543 836.505C649.916 814.587 619.282 768.621 601.673 734.457C583.971 700.292 572.231 680.326 575.533 690.087C578.835 699.849 586.264 737.829 591.859 774.389C599.747 824.969 599.563 854.786 591.125 898.622C585.072 930.302 573.974 965.265 566.453 976.268C558.933 987.272 539.397 1004.4 522.979 1014.43C502.16 1027.2 482.165 1031.73 456.485 1029.42C436.307 1027.65 405.582 1016.47 388.247 1004.58C370.821 992.685 349.176 970.944 340.096 956.302C325.237 932.343 318.817 929.592 275.435 928.971C248.837 928.616 213.801 921.605 197.384 913.442C180.966 905.278 159.321 885.666 149.232 869.782C139.235 853.898 131.072 826.922 131.256 809.884C131.439 792.846 136.575 770.396 142.72 760.191C148.774 749.897 164.09 729.842 176.747 715.644C189.313 701.446 214.168 679.084 231.778 666.128C249.387 653.084 288.642 630.1 373.939 587.772L332.666 594.516C309.921 598.332 258.376 600.906 218.02 600.284C175.372 599.663 131.164 593.629 112.545 585.82C94.844 578.544 69.0715 559.997 55.2222 544.734C36.145 523.792 30 507.908 30 479.334C30.0917 457.239 37.6125 429.641 48.3434 412.781C58.4323 396.897 82.7373 372.937 102.273 359.538C134.466 337.531 137.492 332.118 133.365 304.076C130.889 286.684 135.108 257.4 142.995 237.523C150.791 218 169.777 191.024 185.277 177.624C206.097 159.611 223.065 153.221 250.121 153.221C270.299 153.221 298.181 158.901 312.03 165.822C325.879 172.744 354.679 195.727 375.957 216.847C397.235 237.966 429.336 281.182 479.689 370.63L472.627 321.824C468.775 294.936 466.023 247.106 466.482 215.338C466.94 183.57 471.985 143.638 477.763 126.6C483.449 109.562 501.701 82.9408 518.21 67.5891C534.719 52.1487 556.456 37.5956 566.545 35.2884C576.634 32.9812 586.906 30.5853 589.474 30.0529V30.0529ZM615.339 787.699C619.649 792.58 630.013 814.587 638.543 836.505C646.981 858.513 663.123 892.233 674.404 911.489C685.686 930.745 712.834 958.698 734.754 973.606C769.332 997.122 783.639 1001.03 844.815 1003.33C886.546 1004.93 935.523 1000.76 965.514 993.04C993.305 985.852 1017.98 981.592 1020.54 983.633C1023.11 985.674 1008.62 993.927 988.444 1001.91C968.266 1009.99 922.866 1018.42 887.555 1020.64C852.244 1022.94 806.844 1020.55 786.666 1015.31C766.488 1010.08 731.636 990.732 709.257 972.186C681.008 948.848 659.271 918.943 638.176 874.219C621.484 838.813 607.726 802.874 607.634 794.355C607.543 784.771 610.478 782.198 615.339 787.699Z" fill="#9FC179"/>
</g>
<path fill-rule="evenodd" clip-rule="evenodd" d="M589.474 30.0529C592.042 29.5204 609.56 33.07 628.454 37.9506C651.383 43.8073 676.606 61.5254 704.121 91.1048C742 131.836 748.787 135.474 786.666 135.474C809.32 135.474 841.329 141.686 857.747 149.317C874.164 156.86 896.727 175.85 908.008 191.468C919.289 206.997 928.552 232.731 928.644 248.615C928.736 264.499 921.123 292.452 911.768 310.732C902.321 329.012 874.439 361.401 849.859 382.61C825.187 403.907 782.355 432.303 704.121 470.283L800.424 465.935C887.463 461.942 901.496 463.539 946.346 482.618C973.585 494.242 1003.67 513.765 1013.12 525.922C1023.85 539.765 1030.27 562.305 1029.99 585.82C1029.81 609.513 1022.01 634.892 1009.08 654.149C997.707 671.009 973.952 693.637 956.343 704.463C926.076 723.009 924.425 726.47 927.727 764.805C930.387 795.508 925.984 814.765 909.384 843.782C897.369 864.813 879.3 887.264 869.211 893.564C859.123 899.864 836.377 907.851 818.767 911.223C794.279 915.926 777.036 912.554 746.035 896.936C723.656 885.666 689.263 858.424 669.543 836.505C649.916 814.587 619.282 768.621 601.673 734.457C583.971 700.292 572.231 680.326 575.533 690.087C578.835 699.849 586.264 737.829 591.859 774.389C599.747 824.969 599.563 854.786 591.125 898.622C585.072 930.302 573.974 965.265 566.453 976.268C558.933 987.272 539.397 1004.4 522.979 1014.43C502.16 1027.2 482.165 1031.73 456.484 1029.42C436.307 1027.65 405.582 1016.47 388.247 1004.58C370.821 992.685 349.176 970.944 340.096 956.302C325.237 932.343 318.817 929.592 275.435 928.971C248.837 928.616 213.801 921.605 197.384 913.441C180.966 905.278 159.321 885.667 149.232 869.782C139.235 853.898 131.072 826.922 131.256 809.884C131.439 792.846 136.575 770.395 142.72 760.191C148.774 749.897 164.09 729.842 176.747 715.644C189.313 701.446 214.168 679.084 231.778 666.128C249.387 653.084 288.642 630.1 373.939 587.772L332.666 594.516C309.921 598.332 258.376 600.906 218.02 600.284C175.372 599.663 131.164 593.629 112.545 585.82C94.844 578.544 69.0715 559.997 55.2222 544.734C36.145 523.792 30 507.908 30 479.334C30.0917 457.238 37.6125 429.641 48.3434 412.781C58.4323 396.897 82.7373 372.937 102.273 359.538C134.466 337.531 137.492 332.118 133.365 304.076C130.889 286.684 135.108 257.4 142.995 237.523C150.791 218 169.777 191.024 185.277 177.624C206.097 159.611 223.064 153.221 250.121 153.221C270.299 153.221 298.181 158.901 312.03 165.822C325.879 172.744 354.679 195.727 375.957 216.847C397.235 237.966 429.336 281.182 479.689 370.63L472.627 321.824C468.775 294.936 466.023 247.106 466.482 215.338C466.94 183.57 471.985 143.638 477.763 126.6C483.449 109.562 501.701 82.9408 518.21 67.5891C534.719 52.1487 556.456 37.5956 566.545 35.2884C576.634 32.9812 586.906 30.5853 589.474 30.0529ZM615.339 787.699C619.649 792.58 630.013 814.587 638.543 836.505C646.981 858.513 663.123 892.233 674.404 911.489C685.686 930.745 712.834 958.698 734.754 973.606C769.332 997.122 783.639 1001.03 844.815 1003.33C886.546 1004.93 935.523 1000.76 965.514 993.04C993.305 985.852 1017.98 981.592 1020.54 983.633C1023.11 985.674 1008.62 993.927 988.444 1001.91C968.266 1009.99 922.866 1018.42 887.555 1020.64C852.244 1022.94 806.844 1020.55 786.666 1015.31C766.488 1010.08 731.636 990.732 709.257 972.186C681.008 948.848 659.271 918.943 638.176 874.219C621.484 838.813 607.726 802.874 607.634 794.355C607.543 784.771 610.478 782.198 615.339 787.699Z" fill="#D3FFA0" stroke="#70A336" stroke-width="3"/>
<path d="M562.582 447.227C547.83 469.896 533.74 488.618 531.092 488.801C528.444 488.985 521.257 479.715 515.111 468.152C504.803 449.246 504.425 450.072 510.383 477.238C515.016 498.621 513.503 507.248 505.087 507.065C498.562 506.973 474.07 498.621 450.713 488.526C427.356 478.431 408.16 472.19 408.16 474.76C408.16 477.329 425.181 487.608 445.985 497.703C466.789 507.799 487.025 520.647 490.903 526.246C494.78 531.844 491.659 540.104 483.81 544.509C474.543 549.771 473.755 552.463 481.446 552.585C487.971 552.677 493.267 558.918 493.267 566.535C493.267 574.06 484.756 598.932 474.354 621.6C463.952 644.269 457.522 662.899 460.169 662.899C462.817 662.899 473.219 647.389 483.432 628.483C493.645 609.578 506.222 587.827 511.423 580.301C519.555 568.462 522.77 569.105 534.591 584.89C547.546 602.235 548.019 601.685 542.061 576.447C536.198 551.208 537.144 550.107 559.461 556.99C572.511 561.028 594.828 569.931 609.107 576.905C623.386 583.789 638.327 589.387 642.204 589.295C646.081 589.203 629.06 576.814 604.379 561.763C579.698 546.711 559.461 530.284 559.461 525.236C559.461 520.188 564.757 515.783 571.281 515.416C577.806 515.049 575.726 511.929 566.742 508.533C551.707 502.751 552.085 498.621 572.511 454.11C584.709 427.587 593.409 405.928 591.991 405.928C590.478 405.928 577.239 424.467 562.582 447.227Z" fill="#8FCA4A" stroke="#70A336" stroke-width="3"/>
<defs>
<filter id="filter0_f_154_234" x="0" y="0" width="1060" height="1060" filterUnits="userSpaceOnUse" color-interpolation-filters="sRGB">
<feFlood flood-opacity="0" result="BackgroundImageFix"/>
<feBlend mode="normal" in="SourceGraphic" in2="BackgroundImageFix" result="shape"/>
<feGaussianBlur stdDeviation="15" result="effect1_foregroundBlur_154_234"/>
</filter>
</defs>
</svg>
